<svg width="21" height="14" viewBox="0 0 21 14" fill="none" xmlns="http://www.w3.org/2000/svg">
<path d="M17.766 13.279C17.4541 13.279 17.155 13.1551 16.9344 12.9345C16.7139 12.714 16.59 12.4149 16.59 12.103V1.90598C16.59 1.59409 16.7139 1.29497 16.9344 1.07442C17.155 0.853881 17.4541 0.729981 17.766 0.729981H18.942C19.0965 0.72985 19.2495 0.760171 19.3923 0.819211C19.5351 0.878252 19.6649 0.964855 19.7742 1.07407C19.8835 1.18328 19.9702 1.31297 20.0294 1.45571C20.0885 1.59846 20.119 1.75146 20.119 1.90598V12.106C20.1187 12.4178 19.9947 12.7168 19.7743 12.9372C19.5538 13.1577 19.2548 13.2817 18.943 13.282L17.766 13.279ZM12.275 13.279C11.9632 13.2787 11.6642 13.1547 11.4437 12.9342C11.2232 12.7138 11.0993 12.4148 11.099 12.103V4.65198C11.099 4.34009 11.2229 4.04097 11.4434 3.82042C11.664 3.59988 11.9631 3.47598 12.275 3.47598H13.452C13.6065 3.47585 13.7595 3.50617 13.9023 3.56521C14.0451 3.62425 14.1749 3.71085 14.2842 3.82007C14.3935 3.92928 14.4802 4.05897 14.5394 4.20171C14.5985 4.34446 14.629 4.49746 14.629 4.65198V12.103C14.6287 12.4148 14.5047 12.7138 14.2843 12.9342C14.0638 13.1547 13.7648 13.2787 13.453 13.279H12.275ZM6.78499 13.279C6.47317 13.2787 6.17421 13.1547 5.95372 12.9342C5.73324 12.7138 5.60925 12.4148 5.60899 12.103V7.39598C5.60925 7.08417 5.73324 6.7852 5.95372 6.56472C6.17421 6.34423 6.47317 6.22025 6.78499 6.21998H7.96199C8.27397 6.21998 8.5732 6.34385 8.7939 6.56436C9.0146 6.78488 9.13872 7.08399 9.13899 7.39598V12.102C9.13872 12.414 9.0146 12.7131 8.7939 12.9336C8.5732 13.1541 8.27397 13.278 7.96199 13.278L6.78499 13.279ZM1.29499 13.279C0.983093 13.279 0.683973 13.1551 0.46343 12.9345C0.242888 12.714 0.118988 12.4149 0.118988 12.103L0.118988 9.74998C0.118988 9.43799 0.242856 9.13877 0.46337 8.91807C0.683884 8.69737 0.983002 8.57325 1.29499 8.57298H2.47199C2.78397 8.57325 3.08309 8.69737 3.30361 8.91807C3.52412 9.13877 3.64799 9.43799 3.64799 9.74998V12.103C3.64799 12.4149 3.52409 12.714 3.30355 12.9345C3.083 13.1551 2.78388 13.279 2.47199 13.279H1.29499Z" fill="white"/>
</svg>
