<svg width="21" height="15" viewBox="0 0 21 15" fill="none" xmlns="http://www.w3.org/2000/svg">
<path d="M10.711 14.607L8.094 11.969C8.05388 11.9302 8.02229 11.8835 8.00128 11.8319C7.98027 11.7802 7.9703 11.7247 7.972 11.669C7.97251 11.6123 7.98477 11.5564 8.00801 11.5048C8.03125 11.4531 8.06496 11.4069 8.107 11.369C8.91603 10.6851 9.94114 10.3098 11.0005 10.3098C12.0599 10.3098 13.085 10.6851 13.894 11.369C13.936 11.4065 13.9697 11.4523 13.9932 11.5034C14.0167 11.5546 14.0295 11.6101 14.0306 11.6663C14.0317 11.7226 14.0212 11.7786 13.9998 11.8306C13.9784 11.8827 13.9464 11.9298 13.906 11.969L11.291 14.607C11.2531 14.6453 11.2079 14.6757 11.1581 14.6965C11.1083 14.7173 11.0549 14.728 11.001 14.728C10.9471 14.728 10.8937 14.7173 10.8439 14.6965C10.7941 14.6757 10.7489 14.6453 10.711 14.607ZM15.311 9.98795C14.1292 8.91872 12.5922 8.32666 10.9985 8.32666C9.40476 8.32666 7.86785 8.91872 6.686 9.98795C6.60933 10.0597 6.50786 10.0989 6.40289 10.0974C6.29792 10.0959 6.1976 10.0538 6.123 9.97995L4.611 8.45295C4.57148 8.41345 4.54024 8.36646 4.5191 8.31473C4.49797 8.263 4.48737 8.20757 4.48793 8.15169C4.48849 8.09582 4.50019 8.04061 4.52236 7.98932C4.54452 7.93802 4.5767 7.89166 4.617 7.85295C6.35252 6.2407 8.63367 5.34462 11.0025 5.34462C13.3713 5.34462 15.6525 6.2407 17.388 7.85295C17.4283 7.89166 17.4605 7.93802 17.4826 7.98932C17.5048 8.04061 17.5165 8.09582 17.5171 8.15169C17.5176 8.20757 17.507 8.263 17.4859 8.31473C17.4648 8.36646 17.4335 8.41345 17.394 8.45295L15.882 9.97995C15.8071 10.0549 15.7059 10.0975 15.5999 10.0988C15.494 10.1001 15.3917 10.06 15.315 9.98695L15.311 9.98795ZM18.8 6.47195C16.696 4.47386 13.9051 3.35984 11.0035 3.35984C8.1019 3.35984 5.31104 4.47386 3.207 6.47195C3.16984 6.50929 3.12566 6.53893 3.07701 6.55914C3.02835 6.57936 2.97619 6.58977 2.9235 6.58977C2.87082 6.58977 2.81865 6.57936 2.77 6.55914C2.72135 6.53893 2.67717 6.50929 2.64 6.47195L1.122 4.94095C1.08221 4.90178 1.05061 4.85508 1.02905 4.80358C1.00748 4.75207 0.996368 4.69679 0.996368 4.64095C0.996368 4.58512 1.00748 4.52984 1.02905 4.47833C1.05061 4.42683 1.08221 4.38013 1.122 4.34095C3.77976 1.79652 7.31712 0.376221 10.9965 0.376221C14.6759 0.376221 18.2132 1.79652 20.871 4.34095C20.9108 4.38013 20.9424 4.42683 20.964 4.47833C20.9855 4.52984 20.9966 4.58512 20.9966 4.64095C20.9966 4.69679 20.9855 4.75207 20.964 4.80358C20.9424 4.85508 20.9108 4.90178 20.871 4.94095L19.364 6.46695C19.3268 6.50429 19.2827 6.53393 19.234 6.55414C19.1854 6.57436 19.1332 6.58477 19.0805 6.58477C19.0278 6.58477 18.9756 6.57436 18.927 6.55414C18.8783 6.53393 18.8342 6.50429 18.797 6.46695L18.8 6.47195Z" fill="white"/>
</svg>
